<?xml version="1.0" encoding="UTF-8"?>
<!DOCTYPE svg PUBLIC "-//W3C//DTD SVG 1.1//EN" "http://www.w3.org/Graphics/SVG/1.1/DTD/svg11.dtd">
<!-- Creator: CorelDRAW 2019 (64 Bit) -->
<svg xmlns="http://www.w3.org/2000/svg" xml:space="preserve" width="600" height="300"  version="1.1" style="shape-rendering:geometricPrecision; text-rendering:geometricPrecision; image-rendering:optimizeQuality; fill-rule:evenodd; clip-rule:evenodd"
viewBox="0 0 6300.5 6300.5"
 xmlns:xlink="http://www.w3.org/1999/xlink">
 <defs>
  <style type="text/css">
   <![CDATA[
    .fil1 {fill:#323232;fill-rule:nonzero}
    .fil0 {fill:white;fill-rule:nonzero}
   ]]>
  </style>
 </defs>
 <g id="Camada_x0020_1">
  <metadata id="CorelCorpID_0Corel-Layer"/>
  <path class="fil0" d="M6539.5 3269.7c0,107.1 -5.2,213.9 -15.7,320.5 -10.5,106.6 -26.2,212.4 -47.1,317.4 -20.9,105 -46.9,208.8 -78,311.3 -31.1,102.5 -67.1,203.2 -108.1,302.1 -41,98.9 -86.7,195.6 -137.2,290.1 -50.5,94.4 -105.5,186.2 -165,275.2 -59.5,89 -123.2,175 -191.1,257.7 -67.9,82.8 -139.8,162 -215.5,237.8 -75.7,75.7 -155,147.6 -237.8,215.5 -82.8,67.9 -168.7,131.7 -257.7,191.2 -89,59.5 -180.8,114.5 -275.2,165 -94.4,50.5 -191.1,96.2 -290.1,137.2 -98.9,41 -199.7,77 -302.1,108.1 -102.5,31.1 -206.2,57.1 -311.3,78 -105,20.9 -210.8,36.6 -317.4,47.1 -106.6,10.5 -213.4,15.7 -320.5,15.7 -107.1,0 -213.9,-5.2 -320.5,-15.7 -106.6,-10.5 -212.4,-26.2 -317.4,-47.1 -105,-20.9 -208.8,-46.9 -311.3,-78 -102.5,-31.1 -203.2,-67.1 -302.1,-108.1 -98.9,-41 -195.6,-86.7 -290.1,-137.2 -94.4,-50.5 -186.2,-105.5 -275.2,-165 -89,-59.5 -175,-123.2 -257.7,-191.2 -82.8,-67.9 -162,-139.8 -237.8,-215.5 -75.7,-75.7 -147.6,-155 -215.5,-237.8 -67.9,-82.8 -131.7,-168.7 -191.2,-257.7 -59.5,-89 -114.5,-180.8 -165,-275.2 -50.5,-94.5 -96.2,-191.1 -137.2,-290.1 -41,-98.9 -77,-199.7 -108.1,-302.1 -31.1,-102.5 -57.1,-206.2 -78,-311.3 -20.9,-105 -36.6,-210.8 -47.1,-317.4 -10.5,-106.6 -15.7,-213.4 -15.7,-320.5 0,-107.1 5.2,-213.9 15.7,-320.5 10.5,-106.6 26.2,-212.4 47.1,-317.4 20.9,-105 46.9,-208.8 78,-311.3 31.1,-102.5 67.1,-203.2 108.1,-302.1 41,-98.9 86.7,-195.6 137.2,-290.1 50.5,-94.4 105.5,-186.2 165,-275.2 59.5,-89 123.2,-174.9 191.2,-257.7 67.9,-82.8 139.8,-162 215.5,-237.8 75.7,-75.7 155,-147.5 237.8,-215.5 82.8,-67.9 168.7,-131.6 257.7,-191.1 89,-59.5 180.8,-114.5 275.2,-165 94.5,-50.5 191.1,-96.2 290.1,-137.2 98.9,-41 199.7,-77 302.1,-108.1 102.5,-31.1 206.2,-57.1 311.3,-78 105,-20.9 210.8,-36.6 317.4,-47.1 106.6,-10.5 213.4,-15.7 320.5,-15.7 107.1,0 213.9,5.2 320.5,15.7 106.6,10.5 212.4,26.2 317.4,47.1 105,20.9 208.8,46.9 311.3,78 102.5,31.1 203.2,67.1 302.1,108.1 98.9,41 195.6,86.7 290.1,137.2 94.4,50.5 186.2,105.5 275.2,165 89,59.5 174.9,123.2 257.7,191.1 82.8,67.9 162,139.8 237.8,215.5 75.7,75.7 147.5,155 215.5,237.8 67.9,82.8 131.6,168.7 191.1,257.7 59.5,89 114.5,180.8 165,275.2 50.5,94.4 96.2,191.1 137.2,290.1 41,98.9 77,199.7 108.1,302.1 31.1,102.5 57.1,206.2 78,311.3 20.9,105 36.6,210.8 47.1,317.4 10.5,106.6 15.7,213.4 15.7,320.5z"/>
  <path class="fil1" d="M4747.1 2289.5l-327.7 0 0 1474.6 -2130 0 0 327.7c0,90.1 73.7,163.9 163.8,163.9l1802.3 0 655.4 655.4 0 -2457.6c0,-90.1 -73.7,-163.9 -163.9,-163.9zm-655.4 983.1l0 -1474.6c0,-90.1 -73.7,-163.8 -163.9,-163.8l-2130 0c-90.1,0 -163.9,73.7 -163.9,163.8l0 2293.8 655.4 -655.4 1638.4 0c90.1,0 163.9,-73.7 163.9,-163.8z"/>
 </g>
</svg>
