<?xml version="1.0" encoding="UTF-8"?>
<!DOCTYPE svg PUBLIC "-//W3C//DTD SVG 1.1//EN" "http://www.w3.org/Graphics/SVG/1.1/DTD/svg11.dtd">
<!-- Creator: CorelDRAW 2019 (64 Bit) -->
<svg xmlns="http://www.w3.org/2000/svg" xml:space="preserve"  width="600" height="300"  version="1.1" style="shape-rendering:geometricPrecision; text-rendering:geometricPrecision; image-rendering:optimizeQuality; fill-rule:evenodd; clip-rule:evenodd"
viewBox="0 0 9618.5 9618.5"
 xmlns:xlink="http://www.w3.org/1999/xlink">
 <defs>
  <style type="text/css">
   <![CDATA[
    .fil0 {fill:white;fill-rule:nonzero}
    .fil1 {fill:black;fill-rule:nonzero}
   ]]>
  </style>
 </defs>
 <g id="Camada_x0020_1">
  <metadata id="CorelCorpID_0Corel-Layer"/>
  <path class="fil0" d="M9618.5 4824c-0.5,152.6 -8.2,304.8 -23.2,456.6 -15.4,156.7 -38.5,312.4 -69.3,466.9 -30.7,154.5 -68.9,307.1 -114.7,457.8 -45.7,150.7 -98.7,298.9 -159,444.4 -60.3,145.5 -127.6,287.7 -201.8,426.6 -74.3,138.9 -155.1,273.8 -242.6,404.8 -87.5,131 -181.2,257.3 -281.1,379.1 -99.9,121.8 -205.6,238.3 -317,349.7 -111.4,111.4 -227.9,217 -349.7,317 -121.8,99.9 -248.1,193.6 -379.1,281.2 -131,87.5 -265.9,168.4 -404.8,242.6 -138.9,74.3 -281.1,141.5 -426.6,201.8 -145.5,60.3 -293.6,113.3 -444.4,159 -150.7,45.7 -303.3,84 -457.8,114.7 -154.5,30.7 -310.1,53.8 -466.9,69.3 -154.3,15.2 -308.9,22.9 -464,23.2l-7.4 0 -7.4 0c-155,-0.2 -309.7,-8 -464,-23.2 -156.7,-15.4 -312.4,-38.5 -466.9,-69.3 -154.5,-30.7 -307.1,-69 -457.8,-114.7 -150.7,-45.7 -298.9,-98.7 -444.4,-159 -145.5,-60.3 -287.7,-127.5 -426.6,-201.8 -138.9,-74.2 -273.8,-155.1 -404.8,-242.6 -131,-87.5 -257.3,-181.2 -379.1,-281.2 -121.8,-99.9 -238.3,-205.6 -349.7,-317 -111.4,-111.4 -217,-227.9 -317,-349.7 -99.9,-121.8 -193.6,-248.1 -281.1,-379.1 -87.5,-131 -168.4,-265.9 -242.6,-404.8 -74.3,-138.9 -141.5,-281.1 -201.8,-426.6 -60.3,-145.5 -113.3,-293.7 -159,-444.4 -45.7,-150.7 -84,-303.3 -114.7,-457.8 -30.7,-154.5 -53.8,-310.1 -69.3,-466.9 -15.2,-154.3 -22.9,-309 -23.2,-464l0 -7.4 0 -7.4c0.2,-155.1 8,-309.7 23.2,-464 15.4,-156.8 38.5,-312.4 69.3,-466.9 30.7,-154.5 69,-307.1 114.7,-457.8 45.7,-150.7 98.7,-298.8 159,-444.4 60.3,-145.5 127.5,-287.7 201.8,-426.6 74.2,-138.9 155.1,-273.8 242.6,-404.8 87.5,-131 181.2,-257.3 281.1,-379.1 99.9,-121.8 205.6,-238.3 317,-349.7 111.4,-111.4 227.9,-217 349.7,-317 121.8,-99.9 248.1,-193.6 379.1,-281.1 131,-87.5 265.9,-168.4 404.8,-242.6 138.9,-74.2 281.1,-141.5 426.6,-201.8 145.5,-60.3 293.6,-113.3 444.4,-159 150.7,-45.7 303.3,-83.9 457.8,-114.7 154.5,-30.7 310.1,-53.8 466.9,-69.3 154.3,-15.2 309,-22.9 464,-23.2l7.4 0 7.4 0c155.1,0.2 309.7,8 464,23.2 156.8,15.4 312.4,38.5 466.9,69.3 154.5,30.7 307.1,68.9 457.8,114.7 150.7,45.7 298.9,98.7 444.4,159 145.5,60.3 287.7,127.6 426.6,201.8 138.9,74.3 273.8,155.1 404.8,242.6 131,87.5 257.3,181.2 379.1,281.1 121.8,99.9 238.3,205.6 349.7,317 111.4,111.4 217,227.9 317,349.7 99.9,121.8 193.6,248.1 281.1,379.1 87.5,131 168.4,265.9 242.6,404.8 74.2,138.9 141.5,281.1 201.8,426.6 60.3,145.5 113.3,293.7 159,444.4 45.7,150.7 84,303.3 114.7,457.8 30.7,154.5 53.8,310.1 69.3,466.9 15,151.8 22.7,304.1 23.2,456.6l0 29.5z"/>
  <polygon class="fil1" points="6193.2,4723.3 7250.3,4723.3 7250.3,4934.7 6193.2,4934.7 "/>
  <path class="fil1" d="M7135.3 5174.2l9.3 -28 -845.7 0 9.3 28c57.6,172.6 219.1,289.1 401.2,289.1l24.7 0c182,0 343.5,-116.5 401.2,-289.1z"/>
  <polygon class="fil1" points="5030.4,2820.5 5347.5,2820.5 5347.5,3032 5030.4,3032 "/>
  <polygon class="fil1" points="8096,2820.5 8413.1,2820.5 8413.1,3032 8096,3032 "/>
  <polygon class="fil1" points="5451,1805 5600.5,1655.5 5824.7,1879.8 5675.2,2029.3 "/>
  <polygon class="fil1" points="7618.6,1879.8 7842.9,1655.5 7992.4,1805 7768.1,2029.3 "/>
  <polygon class="fil1" points="6616,1340.6 6827.5,1340.6 6827.5,1657.7 6616,1657.7 "/>
  <path class="fil1" d="M6827.5 6414.7l0 -317.1 -211.4 0 0 317.1c0,408.1 -331.9,740 -740,740l-105.7 0c-408,0 -740,-331.9 -740,-740l0 -1902.8c0,-524.5 -426.9,-951.4 -951.4,-951.4l-211.4 0 0 211.4 211.4 0c408.1,0 740,331.9 740,740l0 1902.8c0,524.5 426.9,951.4 951.4,951.4l105.7 0c524.5,0 951.4,-426.9 951.4,-951.4z"/>
  <polygon class="fil1" points="6616,5674.7 6827.5,5674.7 6827.5,5886.1 6616,5886.1 "/>
  <path class="fil1" d="M7250.3 4307.2c0,-172.8 63.4,-343 187.9,-460.2 209.3,-197 340.7,-479 340.7,-792.6 0,-636.8 -539.9,-1144.9 -1177.7,-1072.8 -488.6,55.2 -883.5,464.7 -931.3,964.4 -33.8,353.7 100,676.1 329.6,895.5 125.6,119.9 193.8,289.6 193.8,465.2l0 205.1 1057.1 0 0 -204.7zm-528.6 -927.3l-326.6 180.6 62.4 -382.5 -264.3 -270.8 365.2 -55.8 163.3 -348 163.3 348 365.2 55.8 -264.3 270.8 62.4 382.5 -326.6 -180.6z"/>
  <polygon class="fil1" points="3444.7,3560.5 3656.1,3560.5 3656.1,3771.9 3444.7,3771.9 "/>
  <path class="fil1" d="M2727.2 4306.3l-43 160.7 814.8 226.3 45.1 -168.1c60.5,-225.6 -73.5,-457.4 -298.9,-517.9 -225.6,-60.5 -457.5,73.4 -517.9,298.9z"/>
  <polygon class="fil1" points="3444.2,4897.5 2629.4,4671.1 2099.5,6648.8 2911,6887.5 "/>
  <polygon class="fil1" points="2799.4,7075.1 2093.1,6867.3 2176.2,7683.2 "/>
 </g>
</svg>
