<?xml version="1.0" encoding="UTF-8"?>
<!DOCTYPE svg PUBLIC "-//W3C//DTD SVG 1.1//EN" "http://www.w3.org/Graphics/SVG/1.1/DTD/svg11.dtd">
<!-- Creator: CorelDRAW 2019 (64 Bit) -->
<svg xmlns="http://www.w3.org/2000/svg" xml:space="preserve"  width="600" height="300"  version="1.1" style="shape-rendering:geometricPrecision; text-rendering:geometricPrecision; image-rendering:optimizeQuality; fill-rule:evenodd; clip-rule:evenodd"
viewBox="0 0 38000.3 38000.3"
 xmlns:xlink="http://www.w3.org/1999/xlink">
 <defs>
  <style type="text/css">
   <![CDATA[
    .fil0 {fill:white;fill-rule:nonzero}
    .fil1 {fill:black;fill-rule:nonzero}
   ]]>
  </style>
 </defs>
 <g id="Camada_x0020_1">
  <metadata id="CorelCorpID_0Corel-Layer"/>
  <path class="fil0" d="M38490.3 19245.1c0,630.3 -30.9,1259.1 -92.7,1886.3 -61.8,627.2 -154.1,1250 -277.1,1868.2 -123,618.2 -276,1228.8 -458.9,1832 -182.9,603.2 -395.1,1195.9 -636.3,1778.3 -241.2,582.3 -510.3,1151.3 -807.5,1707.3 -297.1,555.9 -620.8,1095.8 -971,1619.9 -350.1,524.1 -725.1,1029.8 -1125,1516.9 -399.8,487.2 -822.6,953.8 -1268.3,1399.4 -445.7,445.7 -912.1,868.5 -1399.4,1268.3 -487.2,399.9 -992.8,774.9 -1516.9,1125.1 -524,350.1 -1064,673.8 -1620,970.9 -555.9,297.2 -1124.9,566.3 -1707.3,807.5 -582.3,241.2 -1175,453.3 -1778.2,636.3 -603.2,182.9 -1213.8,335.9 -1832,458.9 -618.2,123 -1241,215.3 -1868.2,277.1 -627.3,61.8 -1256.1,92.7 -1886.3,92.7 -630.4,0 -1259.1,-30.9 -1886.3,-92.7 -627.3,-61.8 -1250,-154.1 -1868.2,-277.1 -618.2,-123 -1228.9,-276 -1832.1,-458.9 -603.1,-182.9 -1195.9,-395.1 -1778.2,-636.3 -582.4,-241.2 -1151.4,-510.3 -1707.3,-807.5 -555.9,-297.1 -1095.8,-620.8 -1620,-970.9 -524,-350.2 -1029.7,-725.2 -1516.9,-1125.1 -487.2,-399.8 -953.7,-822.6 -1399.4,-1268.3 -445.7,-445.6 -868.4,-912.1 -1268.3,-1399.4 -399.8,-487.2 -774.8,-992.8 -1125,-1516.9 -350.2,-524 -673.8,-1064 -971,-1619.9 -297.1,-556 -566.3,-1125 -807.5,-1707.3 -241.2,-582.4 -453.2,-1175.1 -636.3,-1778.3 -182.9,-603.2 -335.9,-1213.8 -458.8,-1832 -123,-618.2 -215.3,-1241 -277.1,-1868.2 -61.8,-627.2 -92.7,-1256.1 -92.7,-1886.3 0,-630.4 30.9,-1259.1 92.7,-1886.3 61.8,-627.3 154.1,-1250 277.1,-1868.2 123,-618.2 275.9,-1228.9 458.8,-1832.1 183,-603.1 395.1,-1195.8 636.3,-1778.2 241.2,-582.3 510.4,-1151.4 807.5,-1707.3 297.2,-555.9 620.8,-1095.8 971,-1620 350.2,-524 725.2,-1029.7 1125,-1516.9 399.9,-487.2 822.6,-953.7 1268.3,-1399.4 445.7,-445.6 912.1,-868.4 1399.4,-1268.3 487.2,-399.8 992.9,-774.8 1516.9,-1125 524.1,-350.2 1064.1,-673.8 1620,-971 555.9,-297.1 1124.9,-566.2 1707.3,-807.5 582.3,-241.2 1175.1,-453.2 1778.2,-636.3 603.2,-182.9 1213.9,-335.9 1832.1,-458.8 618.2,-123 1240.9,-215.3 1868.2,-277.1 627.2,-61.8 1256,-92.7 1886.3,-92.7 630.3,0 1259,30.9 1886.3,92.7 627.2,61.8 1250,154.1 1868.2,277.1 618.2,123 1228.8,275.9 1832,458.8 603.2,183 1195.9,395.1 1778.2,636.3 582.4,241.3 1151.4,510.4 1707.4,807.5 555.9,297.2 1095.8,620.8 1619.9,971 524.1,350.2 1029.7,725.2 1516.9,1125 487.2,399.9 953.7,822.7 1399.4,1268.3 445.7,445.7 868.5,912.1 1268.3,1399.4 399.9,487.2 774.9,992.9 1125,1516.9 350.2,524.1 673.9,1064.1 971,1620 297.2,555.9 566.3,1125 807.5,1707.3 241.2,582.4 453.3,1175.1 636.3,1778.2 182.9,603.2 335.9,1213.9 458.9,1832.1 123,618.2 215.3,1240.9 277.1,1868.2 61.8,627.2 92.7,1256 92.7,1886.3z"/>
  <path class="fil1" d="M34654.7 18609c-12,-28.8 -33.4,-51.7 -50.7,-77.4 -15.1,-22 -25.4,-46.8 -44.5,-66.1 -40.9,-41.8 -89.7,-74.7 -144.4,-97.6 -0.5,0 -1,-1 -1.3,-1l-8077.1 -3354.1 -0.5 -0.5 -0.4 0 -1642 -682.1c-0.5,-0.5 -0.9,-0.9 -1.8,-1.3 -0.9,-0.5 -1.3,0 -2.2,-0.5l-1641.5 -682.1c-0.5,0 -0.5,-0.5 -0.9,-0.5 -0.5,0 -1,0 -1,0l-1643.3 -682.9c-0.4,0 -0.4,-0.5 -0.9,-0.5 -0.5,0 -0.9,0 -0.9,0l-1641.5 -682.1c-0.5,-0.5 -1,-0.5 -1.3,-0.9 -0.5,0 -1,0 -1.3,-0.5l-2669 -1108.1c-1,-0.5 -1.3,-0.5 -2.3,-1l-3 -1.3c-29.8,-12.2 -60.4,-12.2 -90.7,-18 -25.4,-4 -48.8,-14.3 -75.6,-14.9l-2.6 0c-0.5,0 -1,0.5 -1.3,0.5 -59.6,0 -117.7,11.7 -171.5,34.7 -14.7,6.7 -25.8,19.3 -40,27.4 -35.5,19.9 -71.6,39.2 -101.3,68.9 -41.3,41.3 -73.7,90.9 -96.5,146.2 0,0.5 -0.5,1 -0.9,1.4 -9.3,23.8 -8.5,47.6 -13.8,71.9 -7.1,33.3 -19.1,63.9 -19.1,99 0,1984.5 -1594.9,3599.3 -3555.1,3599.3 -2.2,0 -4.5,1.3 -6.7,1.3l-1771.4 0c-979.3,0 -1775.7,-805.3 -1777.1,-1796.4 0,-1.4 0.5,-2.3 0.5,-3.1l0 -900.4c0,-248.8 -198.6,-449.9 -444.4,-449.9l-444.9 0c-1225.1,0 -2221.9,1009.2 -2221.9,2249.6l0 7197.8 0 3149.4c0,135.3 58.9,256.6 152.1,339l24430 0c2024.9,-441.5 3587.7,-2156.7 3826.3,-4273.2l0 -2083.6 -2.7 -6.5zm-26183.8 -5672.4l0.5 445.8c0,1.8 -0.9,3.1 -0.9,4.6 0,1488.7 1195.8,2699.5 2666.2,2699.5l1778 0c3.1,0 5.8,-1.8 8.8,-1.8 2228.2,-4.6 4071.5,-1678.6 4383.4,-3849.5l1705.1 708.2 -287.5 716.7c-92.5,230.4 16.8,493.1 244.3,586.7 55.1,22.4 111.6,32.8 167.5,32.8 175.5,0 341.7,-105.7 412,-280.3l287.1 -714.5 822.1 341.5 -285.7 711.8c-92.5,230.4 17.3,492.7 244.8,586.2 54.6,22.5 111.1,32.9 167.1,32.9 175.5,0 341.7,-105.8 412,-280.7l284.3 -708.7 822.6 341.6 -284 706.3c-92.5,230.4 16.8,493.1 244.3,586.7 55.1,22.4 111.6,32.8 167.5,32.8 175.5,0 341.7,-105.7 412,-280.3l282.6 -703.6 822.1 341.5 -281.2 701c-92.5,230.4 16.8,493 244.3,586.7 55.1,22.5 111.6,32.9 167.5,32.9 175.5,0 341.7,-105.8 412,-280.4l280.4 -698.7 822.1 341.5 -279.5 696c-92.5,230.4 16.8,493.1 244.3,586.7 55.1,22.4 111.6,32.8 167.5,32.8 175.5,0 341.7,-105.7 412,-280.3l278.2 -693.4 7385.6 3067.5 0 1049.2c0,496.3 -398.7,899.9 -888.8,899.9l-25774.1 0 0 -6747.9c0,-744.1 598.1,-1349.7 1333.1,-1349.7zm21760.4 11222.6c-12.8,-236.6 -202.6,-425.6 -439.4,-425.6 -245.8,0 -444.4,201.1 -444.4,449.9l-888.3 0c0,-248.8 -198.7,-449.9 -444.4,-449.9 -245.8,0 -444.4,201.1 -444.4,449.9l-887.9 0c0,-248.8 -198.6,-449.9 -444.4,-449.9 -245.8,0 -444.4,201.1 -444.4,449.9l-887.9 0c0,-248.8 -198.6,-449.9 -444.4,-449.9 -245.7,0 -444.3,201.1 -444.3,449.9l-887.9 0c0,-248.8 -198.6,-449.9 -444.4,-449.9 -245.8,0 -444.4,201.1 -444.4,449.9l-887.9 0c0,-248.8 -198.6,-449.9 -444.4,-449.9 -245.7,0 -444.4,201.1 -444.4,449.9l-887.8 0c0,-248.8 -198.6,-449.9 -444.4,-449.9 -245.8,0 -444.4,201.1 -444.4,449.9l-887.9 0c0,-248.8 -198.6,-449.9 -444.4,-449.9 -245.7,0 -444.4,201.1 -444.4,449.9l-887.8 0c0,-248.8 -198.6,-449.9 -444.4,-449.9 -245.8,0 -444.4,201.1 -444.4,449.9l-887.9 0c0,-248.8 -198.6,-449.9 -444.4,-449.9 -245.8,0 -444.4,201.1 -444.4,449.9l-887.8 0c0,-248.8 -198.6,-449.9 -444.4,-449.9 -245.8,0 -444.4,201.1 -444.4,449.9l-887.9 0c0,-248.8 -198.6,-449.9 -444.4,-449.9 -245.8,0 -444.4,201.1 -444.4,449.9l-887.8 0c0,-248.8 -198.7,-449.9 -444.4,-449.9 -245.8,0 -444.4,201.1 -444.4,449.9l-889.7 0 0 -2249.6 25774.1 0c176.9,0 344.8,-34.2 506.5,-83.6 -581.2,1251.1 -1773.4,2155 -3187.1,2308.9z"/>
 </g>
</svg>
